<?xml version="1.0" standalone="no"?>
<!DOCTYPE svg PUBLIC "-//W3C//DTD SVG 20010904//EN"
 "http://www.w3.org/TR/2001/REC-SVG-20010904/DTD/svg10.dtd">
<svg version="1.0" xmlns="http://www.w3.org/2000/svg"
 width="400.000000pt" height="400.000000pt" viewBox="0 0 400.000000 400.000000"
 preserveAspectRatio="xMidYMid meet">
<metadata>
Created by potrace 1.14, written by Peter Selinger 2001-2017
</metadata>
<g transform="translate(0.000000,400.000000) scale(0.100000,-0.100000)"
fill="#000000" stroke="none">
<path d="M0 2000 l0 -2000 2000 0 2000 0 0 2000 0 2000 -2000 0 -2000 0 0
-2000z m1730 1130 c43 -16 113 -46 160 -70 29 -14 47 -16 105 -9 169 20 215
22 215 10 0 -9 9 -11 30 -6 17 4 30 3 30 -2 0 -4 15 -9 33 -10 46 -3 114 -78
123 -136 4 -23 11 -45 17 -48 5 -4 2 -17 -7 -31 -16 -24 -16 -26 2 -30 22 -6
31 -44 25 -103 -2 -22 -3 -49 -4 -60 0 -11 -6 -30 -14 -42 -8 -12 -15 -31 -15
-43 0 -14 -7 -20 -21 -20 -11 0 -17 -4 -14 -10 3 -5 0 -10 -9 -10 -8 0 -16 -6
-19 -12 -2 -9 -30 -13 -88 -14 -132 -2 -151 -3 -145 -12 2 -4 -6 -9 -19 -10
-19 -1 -23 2 -18 16 6 15 5 15 -12 -2 -11 -10 -21 -14 -23 -8 -4 13 -42 3 -42
-12 0 -7 -3 -6 -8 2 -14 22 -34 -35 -21 -59 6 -12 9 -22 7 -23 -79 -49 -86
-57 -121 -131 -21 -42 -37 -88 -37 -101 0 -13 -16 -54 -35 -91 -19 -37 -35
-74 -35 -83 0 -9 -6 -36 -14 -61 -8 -24 -19 -77 -26 -117 -11 -69 -14 -73 -41
-79 -36 -7 -30 -17 25 -41 23 -11 54 -30 68 -43 41 -37 56 -49 67 -49 5 0 12
-7 15 -16 9 -23 -20 -47 -52 -42 -15 3 -38 2 -52 -1 -14 -4 -56 -1 -95 5 -38
7 -77 13 -85 13 -17 0 74 -37 105 -43 86 -17 112 -31 94 -52 -7 -9 -26 -11
-62 -7 -29 3 -49 2 -45 -2 7 -7 134 -26 193 -29 17 0 36 -7 44 -14 18 -17 46
7 54 47 4 18 14 31 28 34 18 5 20 10 13 34 -4 15 -8 42 -8 60 0 29 -13 39 -27
21 -8 -11 -3 82 6 117 4 17 12 35 17 41 5 7 5 28 0 50 -5 23 -5 50 0 66 6 16
5 93 0 190 -6 99 -6 171 0 183 9 20 101 75 126 75 24 0 10 -16 -40 -45 -50
-29 -72 -55 -48 -55 6 0 8 5 5 10 -3 6 -2 10 4 10 6 0 27 11 47 25 47 32 54
31 54 -2 0 -33 36 -73 65 -73 25 0 65 34 65 56 0 14 2 14 15 0 8 -8 15 -20 15
-26 0 -7 7 -9 16 -6 14 5 15 4 4 -9 -7 -8 -19 -15 -26 -15 -8 0 -14 -10 -14
-24 0 -13 -6 -27 -12 -29 -7 -3 6 -6 29 -6 23 -1 45 4 48 9 3 6 15 10 26 10
10 0 19 5 19 10 0 6 3 10 8 10 4 0 8 -16 9 -36 2 -44 8 -51 28 -34 21 18 19 5
-9 -43 -13 -23 -23 -52 -22 -64 2 -12 -1 -20 -5 -18 -8 6 -29 -49 -29 -76 0
-10 -9 -21 -21 -24 -11 -4 -25 -18 -31 -31 -6 -13 -15 -24 -19 -24 -5 0 -13
-18 -19 -40 -8 -30 -16 -40 -31 -40 -11 0 -17 -4 -14 -10 11 -17 -5 -32 -21
-19 -11 9 -17 9 -29 -1 -17 -14 -20 -40 -6 -40 6 0 9 -9 8 -20 -1 -12 -7 -18
-13 -16 -7 3 -18 -2 -25 -10 -9 -11 -15 -12 -25 -3 -11 9 -14 8 -14 -1 0 -9
-4 -9 -17 1 -15 12 -16 12 -11 -2 5 -14 -2 -18 -38 -24 -35 -5 -44 -10 -44
-26 0 -10 5 -19 10 -19 6 0 10 -7 10 -15 0 -9 9 -15 21 -15 14 0 24 -10 32
-30 6 -17 15 -30 19 -30 16 0 8 -47 -11 -64 -15 -13 -23 -15 -47 -6 -20 8 -30
8 -32 1 -2 -6 -9 -11 -15 -11 -16 0 -87 -71 -87 -88 0 -19 -28 -45 -40 -37 -6
3 -13 -2 -17 -12 -4 -10 -15 -25 -25 -34 -10 -9 -18 -21 -18 -28 0 -6 -9 -11
-20 -11 -12 0 -17 -5 -14 -14 7 -18 -54 -32 -134 -31 -61 2 -62 1 -31 -12 32
-13 218 -35 232 -26 4 2 7 0 7 -4 0 -5 35 -10 77 -12 43 -1 81 -4 84 -7 4 -2
10 0 14 6 3 5 14 10 25 10 10 0 21 7 24 16 4 9 9 14 13 11 3 -4 15 0 27 8 23
17 50 20 41 5 -3 -6 3 -10 15 -10 12 0 19 3 17 8 -3 4 1 13 9 19 8 8 15 9 19
3 3 -6 1 -10 -5 -10 -6 0 -9 -4 -6 -8 7 -11 -66 -73 -225 -192 -69 -51 -136
-108 -150 -127 -32 -43 -45 -41 -53 5 -7 49 -55 115 -104 145 -51 33 -59 44
-86 121 -14 42 -32 73 -47 83 -36 24 -128 122 -144 153 -18 36 -99 278 -120
359 -21 84 -44 529 -34 671 9 135 26 202 48 196 9 -2 41 -9 71 -16 97 -20 184
-44 210 -57 14 -7 31 -13 38 -13 6 0 12 -4 12 -8 0 -5 10 -8 23 -6 12 1 25 3
30 3 4 1 7 14 7 29 0 29 -34 71 -47 59 -3 -4 -13 -1 -21 5 -8 7 -19 13 -26 14
-6 2 -38 10 -71 19 -36 10 -74 14 -95 10 -19 -4 -32 -3 -28 1 12 11 -12 34
-36 34 -11 0 -34 -7 -50 -15 -16 -9 -30 -14 -32 -13 -6 7 35 217 48 243 9 17
23 57 33 90 21 75 63 150 110 195 30 29 45 36 93 40 83 8 142 4 182 -10z m676
-775 c18 -14 17 -14 -13 -11 -28 3 -31 1 -23 -14 7 -13 6 -20 -5 -24 -8 -3
-15 -1 -15 4 0 6 -19 7 -45 3 -52 -7 -135 13 -135 33 0 18 21 22 126 23 65 1
95 -3 110 -14z m-226 -95 c0 -5 -5 -10 -11 -10 -5 0 -7 5 -4 10 3 6 8 10 11
10 2 0 4 -4 4 -10z m-16 -684 c-3 -15 -8 -25 -11 -23 -2 3 -1 17 3 31 3 15 8
25 11 23 2 -3 1 -17 -3 -31z m-349 -136 c3 -5 -3 -10 -15 -10 -12 0 -18 5 -15
10 3 6 10 10 15 10 5 0 12 -4 15 -10z m-261 -521 c25 -20 35 -49 17 -49 -16 0
-61 41 -61 56 0 19 13 18 44 -7z m-24 -57 c-1 -18 -20 -34 -34 -29 -16 6 -22
38 -10 50 8 7 44 -10 44 -21z m610 -126 c6 -8 10 -25 8 -38 -2 -18 -9 -23 -32
-23 -40 0 -56 27 -32 54 22 25 39 26 56 7z m-427 -215 c13 -2 7 -49 -9 -65
-21 -21 -47 -20 -68 3 -32 36 -1 73 54 65 8 -1 18 -3 23 -3z"/>
<path d="M1440 2430 c-36 -4 -78 -13 -93 -21 -25 -14 -27 -17 -13 -28 13 -11
24 -10 65 8 70 30 78 28 73 -14 -5 -44 19 -75 58 -75 27 0 60 27 60 49 0 7 5
9 10 6 6 -3 10 -1 10 4 0 6 7 11 15 11 20 0 19 5 -10 36 -27 29 -62 34 -175
24z"/>
<path d="M2391 2074 c0 -11 3 -14 6 -6 3 7 2 16 -1 19 -3 4 -6 -2 -5 -13z"/>
<path d="M1438 1593 c7 -3 16 -2 19 1 4 3 -2 6 -13 5 -11 0 -14 -3 -6 -6z"/>
</g>
</svg>
